# Blender v2.93.2 OBJ File: ''
# www.blender.org
mtllib square_pyramid.mtl
o Plane
v -1.000000 -1.000000 -1.000000
v 0.000000 1.000000 0.000000
v -1.000000 -1.000000 1.000000
v 1.000000 -1.000000 1.000000
v 1.000000 -1.000000 -1.000000
vt 0.125000 0.500000
vt 0.375000 0.500000
vt 0.375000 0.750000
vt 0.125000 0.750000
vt 0.000000 0.000000
vn 0.0000 -1.0000 0.0000
vn -0.8944 0.4472 0.0000
vn 0.0000 0.4472 -0.8944
vn 0.0000 0.4472 0.8944
vn 0.8944 0.4472 0.0000
usemtl None
s off
f 1/1/1 5/2/1 4/3/1 3/4/1
f 3/4/2 2/5/2 1/1/2
f 1/1/3 2/5/3 5/2/3
f 2/5/4 3/4/4 4/3/4
f 4/3/5 5/2/5 2/5/5
